<svg width="19" height="22" viewBox="0 0 19 22" fill="none" xmlns="http://www.w3.org/2000/svg">
<path d="M1.33752 7C0.965182 7 0.649263 7.12984 0.389574 7.38953C0.129884 7.64922 0 7.96084 0 8.32455V13.9089C0 14.2817 0.129845 14.5973 0.389574 14.857C0.649263 15.1167 0.965182 15.2466 1.33752 15.2466C1.70959 15.2466 2.0236 15.1168 2.27926 14.857C2.53442 14.5974 2.66235 14.2817 2.66235 13.9089V8.32455C2.66235 7.9608 2.5325 7.64922 2.27277 7.38953C2.01304 7.12984 1.70123 7 1.33752 7Z" fill="#ADC749"/>
<path d="M12.0905 1.98682L13.0126 0.285822C13.0731 0.173209 13.0516 0.0868541 12.9478 0.0261322C12.8352 -0.0262277 12.7486 0.000303919 12.6881 0.103852L11.7531 1.81844C10.9304 1.4547 10.0603 1.27249 9.14268 1.27249C8.2249 1.27249 7.35467 1.45474 6.53226 1.81844L5.59725 0.103852C5.53649 0.000303919 5.44994 -0.0259933 5.33756 0.0261322C5.23354 0.0871277 5.21201 0.173209 5.27277 0.285822L6.19489 1.98682C5.25988 2.46364 4.51519 3.12772 3.96112 3.98048C3.40704 4.83371 3.12988 5.76611 3.12988 6.77931H15.1424C15.1424 5.76635 14.8652 4.83391 14.3112 3.98048C13.7571 3.12772 13.0167 2.46364 12.0905 1.98682ZM6.75944 4.46094C6.65973 4.56089 6.54063 4.61064 6.40218 4.61064C6.26347 4.61064 6.14679 4.56089 6.05161 4.46094C5.95642 4.36146 5.90883 4.24283 5.90883 4.10392C5.90883 3.96548 5.95642 3.84661 6.05161 3.74689C6.14679 3.64741 6.26374 3.59767 6.40218 3.59767C6.54063 3.59767 6.65973 3.64741 6.75944 3.74689C6.85893 3.84685 6.9089 3.96548 6.9089 4.10392C6.90863 4.24259 6.85869 4.36146 6.75944 4.46094ZM12.2332 4.46094C12.1379 4.56089 12.0209 4.61064 11.8827 4.61064C11.744 4.61064 11.6249 4.56089 11.5254 4.46094C11.4257 4.36146 11.3759 4.24283 11.3759 4.10392C11.3759 3.96548 11.4257 3.84661 11.5254 3.74689C11.6249 3.64741 11.744 3.59767 11.8827 3.59767C12.0211 3.59767 12.1378 3.64741 12.2332 3.74689C12.3285 3.84685 12.376 3.96548 12.376 4.10392C12.376 4.24259 12.3285 4.36146 12.2332 4.46094Z" fill="#ADC749"/>
<path d="M3.18164 15.8959C3.18164 16.2945 3.32008 16.632 3.597 16.9089C3.87416 17.1858 4.21161 17.3243 4.60997 17.3243H5.57105L5.58422 20.2726C5.58422 20.6449 5.71406 20.9611 5.97375 21.2208C6.23344 21.4805 6.5453 21.6104 6.90877 21.6104C7.28088 21.6104 7.59699 21.4805 7.85672 21.2208C8.11645 20.9611 8.24629 20.6449 8.24629 20.2726V17.3245H10.0384V20.2726C10.0384 20.6449 10.1682 20.9611 10.4279 21.2208C10.6877 21.4805 11.0035 21.6104 11.3759 21.6104C11.748 21.6104 12.0641 21.4805 12.3238 21.2208C12.5836 20.9611 12.7134 20.6449 12.7134 20.2726V17.3245H13.6874C14.077 17.3245 14.4101 17.1861 14.6875 16.9091C14.9644 16.6322 15.1029 16.2948 15.1029 15.8962V7.24658H3.18164V15.8959Z" fill="#ADC749"/>
<path d="M16.9486 7C16.5849 7 16.2733 7.12793 16.0136 7.38309C15.7539 7.63871 15.624 7.95272 15.624 8.32455V13.9089C15.624 14.2817 15.7538 14.5973 16.0136 14.857C16.2733 15.1168 16.5851 15.2466 16.9486 15.2466C17.3207 15.2466 17.6368 15.1168 17.8966 14.857C18.1563 14.5973 18.2861 14.2817 18.2861 13.9089V8.32455C18.2861 7.95268 18.1563 7.63871 17.8966 7.38309C17.6368 7.12793 17.3207 7 16.9486 7Z" fill="#ADC749"/>
</svg>
