<svg width="27" height="27" viewBox="0 0 27 27" fill="none" xmlns="http://www.w3.org/2000/svg">
<g clip-path="url(#clip0)">
<path d="M26.7365 13.8109C26.7365 12.8932 26.6621 11.9706 26.5034 11.0677H13.7698V16.2664H21.0617C20.7591 17.943 19.7869 19.4262 18.3632 20.3687V23.7418H22.7136C25.2682 21.3906 26.7365 17.9182 26.7365 13.8109Z" fill="white"/>
<path d="M13.7699 27.0009C17.4109 27.0009 20.4814 25.8054 22.7186 23.7419L18.3683 20.3687C17.1579 21.1922 15.5953 21.6585 13.7748 21.6585C10.2529 21.6585 7.26665 19.2824 6.19519 16.0878H1.70593V19.5651C3.99768 24.1238 8.66552 27.0009 13.7699 27.0009V27.0009Z" fill="white"/>
<path d="M6.19013 16.0879C5.62463 14.4112 5.62463 12.5957 6.19013 10.9191V7.44174H1.70584C-0.208913 11.2564 -0.208913 15.7506 1.70584 19.5652L6.19013 16.0879V16.0879Z" fill="white"/>
<path d="M13.7699 5.34337C15.6945 5.3136 17.5547 6.03784 18.9486 7.36725L22.8029 3.51294C20.3624 1.22119 17.1232 -0.0387742 13.7699 0.000909749C8.66551 0.000909749 3.99768 2.878 1.70593 7.44166L6.19022 10.919C7.25673 7.71945 10.2479 5.34337 13.7699 5.34337V5.34337Z" fill="white"/>
</g>
<defs>
<clipPath id="clip0">
<rect width="27" height="27" fill="white"/>
</clipPath>
</defs>
</svg>
