<svg width="12" height="14" viewBox="0 0 12 14" fill="none" xmlns="http://www.w3.org/2000/svg">
<path d="M11 5.61538C11 9.76923 6 13 6 13C6 13 1 9.76923 1 5.61538C1 4.39131 1.52678 3.21737 2.46447 2.35181C3.40215 1.48626 4.67392 1 6 1C7.32608 1 8.59785 1.48626 9.53553 2.35181C10.4732 3.21737 11 4.39131 11 5.61538Z" stroke="black" stroke-width="0.5" stroke-linecap="round" stroke-linejoin="round"/>
<path d="M6 7C4.89543 7 4 6.10457 4 5C4 3.89543 4.89543 3 6 3C7.10457 3 8 3.89543 8 5C8 6.10457 7.10457 7 6 7Z" stroke="black" stroke-width="0.5" stroke-linecap="round" stroke-linejoin="round"/>
</svg>
