<svg width="30" height="17" viewBox="0 0 30 17" fill="none" xmlns="http://www.w3.org/2000/svg">
<path d="M1 16C1 13.1875 4.75 13.1875 6.625 11.3125C7.5625 10.375 4.75 10.375 4.75 5.6875C4.75 2.56281 5.99969 1 8.5 1C11.0003 1 12.25 2.56281 12.25 5.6875C12.25 10.375 9.4375 10.375 10.375 11.3125C12.25 13.1875 16 13.1875 16 16" stroke="black" stroke-linecap="round"/>
<path d="M15 13.8039C15.7213 13.3154 16.6576 12.9637 17.5536 12.5397C18.2541 12.2082 18.93 11.8324 19.4591 11.3125C20.4132 10.375 17.5509 10.375 17.5509 5.6875C17.5509 2.56281 18.8227 1 21.3673 1C23.9118 1 25.1836 2.56281 25.1836 5.6875C25.1836 10.375 22.3214 10.375 23.2755 11.3125C25.1836 13.1875 29 13.1875 29 16" stroke="black" stroke-linecap="round"/>
</svg>
