<svg width="18" height="11" viewBox="0 0 18 11" fill="none" xmlns="http://www.w3.org/2000/svg">
<path d="M1 10C1 8.3125 3.25 8.3125 4.375 7.1875C4.9375 6.625 3.25 6.625 3.25 3.8125C3.25 1.93769 3.99981 1 5.5 1C7.00019 1 7.75 1.93769 7.75 3.8125C7.75 6.625 6.0625 6.625 6.625 7.1875C7.75 8.3125 10 8.3125 10 10" stroke="#343843" stroke-width="0.5" stroke-linecap="round"/>
<path d="M9.24609 8.68233C9.67135 8.38925 10.2234 8.17825 10.7516 7.92383C11.1646 7.72491 11.5631 7.49946 11.875 7.1875C12.4375 6.625 10.75 6.625 10.75 3.8125C10.75 1.93769 11.4999 1 13 1C14.5002 1 15.25 1.93769 15.25 3.8125C15.25 6.625 13.5625 6.625 14.125 7.1875C15.25 8.3125 17.5 8.3125 17.5 10" stroke="#343843" stroke-width="0.5" stroke-linecap="round"/>
</svg>
