<svg width="20" height="20" viewBox="0 0 20 20" fill="none" xmlns="http://www.w3.org/2000/svg">
<path d="M10.9211 16.4034L13.4857 13.8387C13.8284 13.4961 14.3674 13.4484 14.7649 13.7256L18.3156 16.2021C18.8262 16.5582 18.8909 17.2892 18.4507 17.7294L18.0644 18.1156C17.3542 18.8259 16.335 19.1336 15.3789 18.8258C13.3139 18.1611 9.55702 16.6177 6.44205 13.5027C3.32708 10.3878 1.7837 6.63087 1.119 4.56592C0.811224 3.60978 1.11889 2.59063 1.82915 1.88037L2.21541 1.4941C2.65558 1.05393 3.38663 1.11857 3.74273 1.62915L6.21918 5.17989C6.49639 5.57736 6.44873 6.11639 6.10607 6.45905L3.54143 9.0237" stroke="#FF9332" stroke-linecap="round"/>
</svg>
