<svg width="38" height="18" viewBox="0 0 38 18" fill="none" xmlns="http://www.w3.org/2000/svg">
<path d="M1 17C1 14 5 14 7 12C8 11 5 11 5 6C5 2.667 6.333 1 9 1C11.667 1 13 2.667 13 6C13 11 10 11 11 12C13 14 17 14 17 17" stroke="#FF9332" stroke-linecap="round"/>
<path d="M21 17C21 14 25 14 27 12C28 11 25 11 25 6C25 2.667 26.333 1 29 1C31.667 1 33 2.667 33 6C33 11 30 11 31 12C33 14 37 14 37 17" stroke="#FF9332" stroke-linecap="round"/>
<path d="M14 14C14 12.125 16.5 12.125 17.75 10.875C18.375 10.25 16.5 10.25 16.5 7.125C16.5 5.04188 17.3331 4 19 4C20.6669 4 21.5 5.04188 21.5 7.125C21.5 10.25 19.625 10.25 20.25 10.875C21.5 12.125 24 12.125 24 14" stroke="#FF9332" stroke-linecap="round"/>
</svg>
