<svg width="15" height="14" viewBox="0 0 15 14" fill="none" xmlns="http://www.w3.org/2000/svg">
<path opacity="0.5" fill-rule="evenodd" clip-rule="evenodd" d="M8.7995 8.31817L8.76913 8.28781L9.12269 7.93425L9.15305 7.96461C10.7167 6.21749 10.6594 3.53199 8.98109 1.85366C7.24342 0.115982 4.42609 0.115982 2.68841 1.85366C0.950733 3.59133 0.950733 6.40867 2.68841 8.14634C4.36678 9.82472 7.05238 9.88199 8.7995 8.31817ZM9.15355 8.67222C7.21068 10.431 4.20854 10.3736 2.33486 8.4999C0.401917 6.56696 0.401917 3.43304 2.33486 1.5001C4.26779 -0.432834 7.40171 -0.432834 9.33465 1.5001C11.2083 3.37374 11.2658 6.37579 9.5071 8.31866L14.7614 13.573L14.4079 13.9265L9.15355 8.67222Z" fill="black"/>
</svg>
