<svg width="20" height="20" viewBox="0 0 20 20" fill="none" xmlns="http://www.w3.org/2000/svg">
<path fill-rule="evenodd" clip-rule="evenodd" d="M9.96454 10.3182L9.93417 10.2878L10.2877 9.93425L10.3181 9.96461C11.8818 8.21749 11.8245 5.53199 10.1461 3.85366C8.40846 2.11598 5.59112 2.11598 3.85345 3.85366C2.11577 5.59133 2.11577 8.40867 3.85345 10.1463C5.53182 11.8247 8.21742 11.882 9.96454 10.3182ZM10.3186 10.6722C8.37572 12.431 5.37357 12.3736 3.4999 10.4999C1.56696 8.56696 1.56696 5.43304 3.4999 3.5001C5.43283 1.56717 8.56675 1.56717 10.4997 3.5001C12.3733 5.37374 12.4308 8.37579 10.6721 10.3187L15.9264 15.573L15.5729 15.9265L10.3186 10.6722Z" fill="#FF9332"/>
</svg>
