<svg width="16" height="16" viewBox="0 0 16 16" fill="none" xmlns="http://www.w3.org/2000/svg">
<rect x="0.25" y="0.25" width="15.5" height="15.5" stroke="black" stroke-width="0.5"/>
<path d="M3.625 10.5H12.375M3.625 5.5H12.375M3 8H13M8 13C8 13 5.1875 11.75 5.1875 8C5.1875 4.25 8 3 8 3M8 3C8 3 10.8125 4.25 10.8125 8C10.8125 11.75 8 13 8 13M8 3V13M13 8C13 10.7614 10.7614 13 8 13C5.23858 13 3 10.7614 3 8C3 5.23858 5.23858 3 8 3C10.7614 3 13 5.23858 13 8Z" stroke="#121923" stroke-width="0.5"/>
</svg>
