<svg width="25" height="33" viewBox="0 0 25 33" fill="none" xmlns="http://www.w3.org/2000/svg">
<rect y="8" width="25" height="25" fill="#FF9332"/>
<path d="M9 0L0 8H9V0Z" fill="#FF9332"/>
<path d="M10.1895 15.543L12.3691 16.8965C11.3027 18.4551 10.752 20.0781 10.7168 21.7656V24.4375H6.97266V22.0117C6.98438 20.8867 7.28906 19.7148 7.88672 18.4961C8.49609 17.2656 9.26367 16.2812 10.1895 15.543ZM16.0957 15.543L18.2754 16.8965C17.209 18.4551 16.6582 20.0781 16.623 21.7656V24.4375H12.8789V22.0117C12.8906 20.8867 13.1953 19.7148 13.793 18.4961C14.4023 17.2656 15.1699 16.2812 16.0957 15.543Z" fill="white"/>
</svg>
