<svg width="10" height="14" viewBox="0 0 10 14" fill="none" xmlns="http://www.w3.org/2000/svg">
<path d="M9 5.61538C9 9.76923 5 13 5 13C5 13 1 9.76923 1 5.61538C1 4.39131 1.42143 3.21737 2.17157 2.35181C2.92172 1.48626 3.93913 1 5 1C6.06087 1 7.07828 1.48626 7.82843 2.35181C8.57857 3.21737 9 4.39131 9 5.61538Z" stroke="#343843" stroke-width="0.5" stroke-linecap="round" stroke-linejoin="round"/>
<path d="M5 7C3.89543 7 3 6.10457 3 5C3 3.89543 3.89543 3 5 3C6.10457 3 7 3.89543 7 5C7 6.10457 6.10457 7 5 7Z" stroke="#343843" stroke-width="0.5" stroke-linecap="round" stroke-linejoin="round"/>
</svg>
