<svg width="22" height="22" viewBox="0 0 22 22" fill="none" xmlns="http://www.w3.org/2000/svg">
<path d="M4.7326 0H16.8775C19.4913 0 21.6101 2.11886 21.6101 4.7326V16.8775C21.6101 19.4913 19.4913 21.6101 16.8775 21.6101H4.7326C2.11886 21.6101 0 19.4913 0 16.8775V4.7326C0 2.11886 2.11886 0 4.7326 0Z" fill="url(#paint0_linear)"/>
<path d="M6.92554 15.685L6.92757 15.6856L6.18872 16.9653C5.91903 17.4325 5.32167 17.5925 4.85454 17.3228C4.38743 17.0531 4.22737 16.4558 4.49706 15.9887L5.04136 15.0459L5.09358 14.9555C5.18687 14.8213 5.41708 14.59 5.87756 14.6335C5.87756 14.6335 6.96117 14.7511 7.03957 15.3143C7.03959 15.3143 7.05029 15.4996 6.92554 15.685ZM17.405 12.4163H15.101C14.9441 12.4058 14.8756 12.3498 14.8487 12.3172L14.847 12.3143L12.3806 8.04238L12.3774 8.04451L12.2295 7.83242C11.9871 7.46172 11.6021 8.40987 11.6021 8.40987C11.1425 9.46635 11.6673 10.6675 11.8503 11.0306L15.276 16.964C15.5457 17.4311 16.143 17.5912 16.6102 17.3215C17.0773 17.0518 17.2373 16.4545 16.9676 15.9873L16.111 14.5036C16.0944 14.4677 16.0655 14.3701 16.2412 14.3697H17.405C17.9444 14.3697 18.3817 13.9324 18.3817 13.393C18.3817 12.8536 17.9444 12.4163 17.405 12.4163ZM12.9299 13.7441C12.9299 13.7441 13.0529 14.3697 12.577 14.3697H12.1011V14.3697H4.05968C3.52028 14.3697 3.08301 13.9324 3.08301 13.393C3.08301 12.8536 3.52028 12.4163 4.05968 12.4163H6.24939C6.60292 12.3959 6.68673 12.1918 6.68673 12.1918L6.68866 12.1928L9.54696 7.24202L9.54611 7.24184C9.59823 7.1462 9.55483 7.05584 9.54728 7.04154L8.60333 5.40658C8.33362 4.93945 8.49368 4.34211 8.96081 4.07242C9.42795 3.80271 10.0253 3.96277 10.295 4.4299L10.7328 5.1882L11.1698 4.43125C11.4395 3.96412 12.0368 3.80406 12.5039 4.07377C12.9711 4.34348 13.1311 4.94081 12.8614 5.40792L8.88399 12.297C8.86661 12.3389 8.86128 12.4048 8.99067 12.4163H11.3681L11.3687 12.4395C11.3687 12.4395 12.7428 12.4609 12.9299 13.7441Z" fill="white"/>
<defs>
<linearGradient id="paint0_linear" x1="10.8051" y1="0" x2="10.8051" y2="21.6101" gradientUnits="userSpaceOnUse">
<stop stop-color="#17C9FB"/>
<stop offset="1" stop-color="#1A74E8"/>
</linearGradient>
</defs>
</svg>
